<svg width="512" height="512" viewBox="0 0 512 512" fill="none" xmlns="http://www.w3.org/2000/svg">
  <rect width="512" height="512" rx="128" fill="url(#paint0_linear)" />
  <path d="M206.837 364.571H305.163M256 64V85.333M392.219 119.781L377.097 134.903M448 256H426.667M85.333 256H64M134.903 134.903L119.781 119.781M196.742 378.857C165.235 347.35 165.235 296.65 196.742 265.143C228.25 233.635 278.95 233.635 310.458 265.143L322.15 276.835C340.667 295.351 352 320.827 352 347.525V405.333C352 416.379 342.712 425.667 331.667 425.667H180.333C169.288 425.667 160 416.379 160 405.333V347.525C160 320.827 171.333 295.351 189.85 276.835L201.542 265.143" stroke="white" stroke-width="42" stroke-linecap="round" stroke-linejoin="round" />
  <defs>
    <linearGradient id="paint0_linear" x1="0" y1="0" x2="512" y2="512" gradientUnits="userSpaceOnUse">
      <stop stop-color="#2563EB" />
      <stop offset="1" stop-color="#7C3AED" />
    </linearGradient>
  </defs>
</svg> 